<svg xmlns="http://www.w3.org/2000/svg" viewBox="0 0 532 663.92"><defs><style>.cls-1{fill:none}.cls-2{fill:#231f20}</style><pattern id="C_40_M_65_Y_90_K_35" data-name="C=40 M=65 Y=90 K=35" width="514.98" height="294.89" patternTransform="matrix(1.43 0 0 1.56 105.11 -522.02)" patternUnits="userSpaceOnUse"><path class="cls-1" d="M0 0h514.98v294.89H0z"/><ellipse class="cls-2" cx="27.19" cy="27.45" rx="14.11" ry="13.42"/><ellipse class="cls-2" cx="28.02" cy="77.82" rx="14.11" ry="13.42"/><ellipse class="cls-2" cx="26.78" cy="124.48" rx="14.11" ry="13.42"/><circle class="cls-2" cx="81.43" cy="27.25" r="13.21"/><ellipse class="cls-2" cx="131.66" cy="27.87" rx="14.11" ry="13.42"/><circle class="cls-2" cx="82.26" cy="77.62" r="13.21"/><ellipse class="cls-2" cx="132.49" cy="78.24" rx="14.11" ry="13.42"/><circle class="cls-2" cx="81.02" cy="124.27" r="13.21"/><ellipse class="cls-2" cx="131.25" cy="124.89" rx="14.11" ry="13.42"/><circle class="cls-2" cx="181.34" cy="27.25" r="13.21"/><ellipse class="cls-2" cx="231.58" cy="27.87" rx="14.11" ry="13.42"/><circle class="cls-2" cx="182.17" cy="77.62" r="13.21"/><ellipse class="cls-2" cx="232.4" cy="78.24" rx="14.11" ry="13.42"/><circle class="cls-2" cx="180.93" cy="124.27" r="13.21"/><ellipse class="cls-2" cx="231.16" cy="124.89" rx="14.11" ry="13.42"/><ellipse class="cls-2" cx="284.83" cy="27.45" rx="14.11" ry="13.42"/><ellipse class="cls-2" cx="285.66" cy="77.82" rx="14.11" ry="13.42"/><ellipse class="cls-2" cx="284.42" cy="124.48" rx="14.11" ry="13.42"/><circle class="cls-2" cx="339.07" cy="22.88" r="13.21"/><ellipse class="cls-2" cx="389.3" cy="23.5" rx="14.11" ry="13.42"/><circle class="cls-2" cx="339.9" cy="73.25" r="13.21"/><ellipse class="cls-2" cx="390.13" cy="73.87" rx="14.11" ry="13.42"/><circle class="cls-2" cx="338.66" cy="119.9" r="13.21"/><ellipse class="cls-2" cx="388.89" cy="120.52" rx="14.11" ry="13.42"/><circle class="cls-2" cx="438.98" cy="22.88" r="13.21"/><ellipse class="cls-2" cx="489.22" cy="23.5" rx="14.11" ry="13.42"/><circle class="cls-2" cx="439.81" cy="73.25" r="13.21"/><ellipse class="cls-2" cx="490.04" cy="73.87" rx="14.11" ry="13.42"/><circle class="cls-2" cx="438.57" cy="119.9" r="13.21"/><ellipse class="cls-2" cx="488.8" cy="120.52" rx="14.11" ry="13.42"/><ellipse class="cls-2" cx="22.83" cy="169.51" rx="14.11" ry="13.42"/><ellipse class="cls-2" cx="23.65" cy="219.88" rx="14.11" ry="13.42"/><ellipse class="cls-2" cx="22.41" cy="266.54" rx="14.11" ry="13.42"/><circle class="cls-2" cx="77.06" cy="169.31" r="13.21"/><ellipse class="cls-2" cx="127.3" cy="169.93" rx="14.11" ry="13.42"/><circle class="cls-2" cx="77.89" cy="219.68" r="13.21"/><ellipse class="cls-2" cx="128.12" cy="220.29" rx="14.11" ry="13.42"/><circle class="cls-2" cx="76.65" cy="266.33" r="13.21"/><ellipse class="cls-2" cx="126.88" cy="266.95" rx="14.11" ry="13.42"/><circle class="cls-2" cx="176.98" cy="169.31" r="13.21"/><ellipse class="cls-2" cx="227.21" cy="169.93" rx="14.11" ry="13.42"/><circle class="cls-2" cx="177.8" cy="219.68" r="13.21"/><ellipse class="cls-2" cx="228.03" cy="220.29" rx="14.11" ry="13.42"/><circle class="cls-2" cx="176.56" cy="266.33" r="13.21"/><ellipse class="cls-2" cx="226.8" cy="266.95" rx="14.11" ry="13.42"/><ellipse class="cls-2" cx="280.47" cy="169.51" rx="14.11" ry="13.42"/><ellipse class="cls-2" cx="281.29" cy="219.88" rx="14.11" ry="13.42"/><ellipse class="cls-2" cx="280.05" cy="266.54" rx="14.11" ry="13.42"/><circle class="cls-2" cx="334.7" cy="164.94" r="13.21"/><ellipse class="cls-2" cx="384.94" cy="165.56" rx="14.11" ry="13.42"/><circle class="cls-2" cx="335.53" cy="215.31" r="13.21"/><ellipse class="cls-2" cx="385.76" cy="215.93" rx="14.11" ry="13.42"/><circle class="cls-2" cx="334.29" cy="261.96" r="13.21"/><ellipse class="cls-2" cx="384.52" cy="262.58" rx="14.11" ry="13.42"/><circle class="cls-2" cx="434.62" cy="164.94" r="13.21"/><ellipse class="cls-2" cx="484.85" cy="165.56" rx="14.11" ry="13.42"/><circle class="cls-2" cx="435.44" cy="215.31" r="13.21"/><ellipse class="cls-2" cx="485.68" cy="215.93" rx="14.11" ry="13.42"/><circle class="cls-2" cx="434.21" cy="261.96" r="13.21"/><ellipse class="cls-2" cx="484.44" cy="262.58" rx="14.11" ry="13.42"/></pattern><pattern id="C_40_M_65_Y_90_K_35-3" data-name="C=40 M=65 Y=90 K=35" width="514.98" height="294.89" patternTransform="matrix(1.43 0 0 1.56 103.88 -522.02)" patternUnits="userSpaceOnUse"><path class="cls-1" d="M0 0h514.98v294.89H0z"/><ellipse class="cls-2" cx="27.19" cy="27.45" rx="14.11" ry="13.42"/><ellipse class="cls-2" cx="28.02" cy="77.82" rx="14.11" ry="13.42"/><ellipse class="cls-2" cx="26.78" cy="124.48" rx="14.11" ry="13.42"/><circle class="cls-2" cx="81.43" cy="27.25" r="13.21"/><ellipse class="cls-2" cx="131.66" cy="27.87" rx="14.11" ry="13.42"/><circle class="cls-2" cx="82.26" cy="77.62" r="13.21"/><ellipse class="cls-2" cx="132.49" cy="78.24" rx="14.11" ry="13.42"/><circle class="cls-2" cx="81.02" cy="124.27" r="13.21"/><ellipse class="cls-2" cx="131.25" cy="124.89" rx="14.11" ry="13.42"/><circle class="cls-2" cx="181.34" cy="27.25" r="13.21"/><ellipse class="cls-2" cx="231.58" cy="27.87" rx="14.11" ry="13.42"/><circle class="cls-2" cx="182.17" cy="77.62" r="13.21"/><ellipse class="cls-2" cx="232.4" cy="78.24" rx="14.11" ry="13.42"/><circle class="cls-2" cx="180.93" cy="124.27" r="13.21"/><ellipse class="cls-2" cx="231.16" cy="124.89" rx="14.11" ry="13.42"/><ellipse class="cls-2" cx="284.83" cy="27.45" rx="14.11" ry="13.42"/><ellipse class="cls-2" cx="285.66" cy="77.82" rx="14.11" ry="13.42"/><ellipse class="cls-2" cx="284.42" cy="124.48" rx="14.11" ry="13.42"/><circle class="cls-2" cx="339.07" cy="22.88" r="13.21"/><ellipse class="cls-2" cx="389.3" cy="23.5" rx="14.11" ry="13.42"/><circle class="cls-2" cx="339.9" cy="73.25" r="13.21"/><ellipse class="cls-2" cx="390.13" cy="73.87" rx="14.11" ry="13.42"/><circle class="cls-2" cx="338.66" cy="119.9" r="13.21"/><ellipse class="cls-2" cx="388.89" cy="120.52" rx="14.11" ry="13.42"/><circle class="cls-2" cx="438.98" cy="22.88" r="13.21"/><ellipse class="cls-2" cx="489.22" cy="23.5" rx="14.11" ry="13.42"/><circle class="cls-2" cx="439.81" cy="73.25" r="13.21"/><ellipse class="cls-2" cx="490.04" cy="73.87" rx="14.11" ry="13.42"/><circle class="cls-2" cx="438.57" cy="119.9" r="13.21"/><ellipse class="cls-2" cx="488.8" cy="120.52" rx="14.11" ry="13.42"/><ellipse class="cls-2" cx="22.83" cy="169.51" rx="14.11" ry="13.42"/><ellipse class="cls-2" cx="23.65" cy="219.88" rx="14.11" ry="13.42"/><ellipse class="cls-2" cx="22.41" cy="266.54" rx="14.11" ry="13.42"/><circle class="cls-2" cx="77.06" cy="169.31" r="13.21"/><ellipse class="cls-2" cx="127.3" cy="169.93" rx="14.11" ry="13.42"/><circle class="cls-2" cx="77.89" cy="219.68" r="13.21"/><ellipse class="cls-2" cx="128.12" cy="220.29" rx="14.11" ry="13.42"/><circle class="cls-2" cx="76.65" cy="266.33" r="13.21"/><ellipse class="cls-2" cx="126.88" cy="266.95" rx="14.11" ry="13.42"/><circle class="cls-2" cx="176.98" cy="169.31" r="13.21"/><ellipse class="cls-2" cx="227.21" cy="169.93" rx="14.11" ry="13.42"/><circle class="cls-2" cx="177.8" cy="219.68" r="13.21"/><ellipse class="cls-2" cx="228.03" cy="220.29" rx="14.11" ry="13.42"/><circle class="cls-2" cx="176.56" cy="266.33" r="13.21"/><ellipse class="cls-2" cx="226.8" cy="266.95" rx="14.11" ry="13.42"/><ellipse class="cls-2" cx="280.47" cy="169.51" rx="14.11" ry="13.42"/><ellipse class="cls-2" cx="281.29" cy="219.88" rx="14.11" ry="13.42"/><ellipse class="cls-2" cx="280.05" cy="266.54" rx="14.11" ry="13.42"/><circle class="cls-2" cx="334.7" cy="164.94" r="13.21"/><ellipse class="cls-2" cx="384.94" cy="165.56" rx="14.11" ry="13.42"/><circle class="cls-2" cx="335.53" cy="215.31" r="13.21"/><ellipse class="cls-2" cx="385.76" cy="215.93" rx="14.11" ry="13.42"/><circle class="cls-2" cx="334.29" cy="261.96" r="13.21"/><ellipse class="cls-2" cx="384.52" cy="262.58" rx="14.11" ry="13.42"/><circle class="cls-2" cx="434.62" cy="164.94" r="13.21"/><ellipse class="cls-2" cx="484.85" cy="165.56" rx="14.11" ry="13.42"/><circle class="cls-2" cx="435.44" cy="215.31" r="13.21"/><ellipse class="cls-2" cx="485.68" cy="215.93" rx="14.11" ry="13.42"/><circle class="cls-2" cx="434.21" cy="261.96" r="13.21"/><ellipse class="cls-2" cx="484.44" cy="262.58" rx="14.11" ry="13.42"/></pattern></defs><g style="isolation:isolate"><g id="Layer_2" data-name="Layer 2"><g id="Layer_2-2" data-name="Layer 2"><path d="M268.68 256.84L365.8 19.58c6.81-16.64 25.92-20.5 32.9-6.64l99.52 197.59c6.43 12.76-2.42 31.3-16.28 34.09L285.3 284.3c-13.86 2.8-22.9-12.13-16.62-27.46z" stroke="#231f20" stroke-miterlimit="10" stroke-width="8.97" fill="#ff6f61"/><path d="M286.04 585.67l-1.22-237c-.06-13 9.16-25.5 20.6-27.81l182.35-36.79c15.94-3.22 26 14.43 18.16 31.79L460.46 416.3c-3.55 7.83-3.59 16.57-.13 23.09l47.95 90.18c7.57 14.24-2.33 35.4-18 38.57l-183.35 37c-11.48 2.34-20.82-6.41-20.89-19.47z" fill="#2ec0cf" stroke="#231f20" stroke-miterlimit="10" stroke-width="8.97"/><path d="M217.95 462.31l19.11-35.83c7.78-14.6 7.22-32-1.7-42.36-28.43-33.07-67.64-34.37-101.74-27.49C65.44 370.27 10.51 446.4 10.94 525.48s56.09 132 124.26 118.22c35.56-7.17 68.88-25.7 98.57-68 10-14.18 11.32-32.85 3.11-45.08l-18.94-28.25c-7.18-10.7-7.17-26.57.01-40.06z" fill="#00d77b" stroke="#231f20" stroke-miterlimit="10" stroke-width="8.97"/><path d="M129.69 59.32l.37 67c0 6.09-4.26 11.89-9.59 13h0c-5.34 1.07-9.69-3-9.72-9.07l-.37-67c0-6.08-4.39-10.14-9.72-9.06L14.09 71.61c-5.34 1.08-9.63 6.88-9.6 13l1.35 245.08c0 6.08 4.39 10.14 9.72 9.06l86.57-17.47c5.34-1.07 9.63-6.88 9.6-13l-.37-66.93c0-6.08 4.26-11.88 9.6-13h0c5.33-1.08 9.68 3 9.72 9.07l.37 66.92c0 6.09 4.38 10.15 9.72 9.07l86.57-17.47c5.33-1.07 9.63-6.88 9.59-13l-1.31-244.99c0-6.08-4.38-10.14-9.72-9.06l-86.57 17.46c-5.37 1.13-9.71 6.88-9.64 12.97z" fill="#f766a6" stroke="#231f20" stroke-miterlimit="10" stroke-width="8.97"/><path d="M541.58 280.44L442.06 82.86c-3.86-7.67-11.43-9.9-18.58-7.56l95.58 189.75c3.49 6.95 3.44 15.89-.14 23.93-3.84 8.59-10.89 14.68-18.87 16.29L311 343.4c2.47 7.6 9.13 12.53 17.61 10.82l196.64-39.68c13.91-2.79 22.75-21.33 16.33-34.1z" transform="translate(-17.38 -56.52)" fill="#ff6f61"/><path d="M545.7 605.38l-47.94-90.18c-3.47-6.52-3.42-15.25.12-23.09l45.48-100.48c7.06-15.6-.37-31.42-13.52-32.13a33.83 33.83 0 0 1-3.09 14.62L481.28 474.6c-3 6.58-3.07 14-.24 19.29L529 584.07c4 7.55 4.1 17.4.23 26.35-4.17 9.63-12 16.46-20.87 18.26L325 665.67c-.38.08-.75.11-1.13.17 1.88 10.57 10.35 17.15 20.47 15.11l183.34-37c15.7-3.17 25.59-24.33 18.02-38.57z" transform="translate(-17.38 -56.52)" fill="#2ebfce"/><path d="M257.45 576.93c-7.18-10.7-7.17-26.57 0-40.06L276.57 501c7.78-14.6 7.23-32-1.69-42.37A89.92 89.92 0 0 0 260.25 445c5.36 11.5 4.65 26.84-2.4 40.06l-19.1 35.85c-6.38 12-6.48 26.24-.24 35.53l18.95 28.25c9.19 13.71 7.89 34.3-3.17 50-27.47 39.13-59.56 61.25-101 69.61a111.64 111.64 0 0 1-22.05 2.24A99.14 99.14 0 0 1 93 699.05c21.87 17.8 50.47 25.52 81.7 19.22 35.57-7.18 68.88-25.71 98.58-68 9.95-14.17 11.31-32.85 3.11-45.08z" transform="translate(-17.38 -56.52)" fill="#00d77b"/><path d="M271 111.62c0-6.08-4.38-10.14-9.71-9.06l-4.35.87 1.3 236.1c0 8.13-5.58 15.65-12.8 17.11l-79 15.94v5.48c0 6.09 4.38 10.15 9.72 9.07l86.57-17.47c5.33-1.07 9.63-6.88 9.6-13zm-138.95 75.14a5.44 5.44 0 0 0 1.61 4.15 3.89 3.89 0 0 0 3.46.81c3.49-.7 6.42-4.74 6.4-8.81l-.29-52.91a7.58 7.58 0 0 0-7.15-2.16l-4.35.88zm12.45 174.18l-.37-66.94a5.46 5.46 0 0 0-1.6-4.15 3.85 3.85 0 0 0-3.46-.81c-3.5.7-6.43 4.74-6.4 8.81l.36 66.93c.05 8.14-5.57 15.65-12.79 17.11l-79 15.94v5.49c0 6.08 4.39 10.14 9.72 9.06l86.57-17.47c5.34-1.07 9.63-6.88 9.6-13l-.07-12.55a14.86 14.86 0 0 1-2.56-8.42z" transform="translate(-17.38 -56.52)" fill="#f766a6"/><path d="M546.79 605.38l-47.95-90.18c-3.46-6.52-3.42-15.25.13-23.09l45.47-100.48c7.06-15.6-.37-31.42-13.52-32.13a26.36 26.36 0 0 0-4.7-14.9 20 20 0 0 0-20.7-8.07l-182.35 36.79c-13.17 2.68-23.78 16.94-23.71 31.85l1.22 237c0 7.65 2.92 14.55 7.91 18.95a19.53 19.53 0 0 0 13.11 5 22.36 22.36 0 0 0 3.24-.27c1.88 10.57 10.35 17.15 20.47 15.11l183.35-37c15.7-3.18 25.6-24.34 18.03-38.58z" transform="translate(-17.38 -56.52)" style="mix-blend-mode:soft-light" fill="url(#C_40_M_65_Y_90_K_35)" opacity=".42"/><path d="M271.1 111.62c0-6.08-4.38-10.14-9.72-9.06l-4.34.87-.05-9a14.09 14.09 0 0 0-4.47-10.58 11.29 11.29 0 0 0-9.91-2.59L156 98.75c-7.22 1.45-12.84 9-12.79 17.11l.08 14.12a7.59 7.59 0 0 0-7.15-2.16l-4.35.88-.05-9a14.08 14.08 0 0 0-4.46-10.58 11.27 11.27 0 0 0-9.91-2.59L30.84 124C23.62 125.47 18 133 18 141.12l1.39 245.08a14.1 14.1 0 0 0 4.47 10.58 11.15 11.15 0 0 0 7.46 2.84 13 13 0 0 0 2.45-.25l7.56-1.53v5.49c0 6.08 4.39 10.14 9.72 9.06l86.57-17.47c5.34-1.07 9.63-6.88 9.6-13l-.07-12.55a12.23 12.23 0 0 0 1.88 2.11 11.26 11.26 0 0 0 9.97 2.62l7.57-1.52v5.48c0 6.09 4.38 10.15 9.72 9.07l86.57-17.47c5.33-1.07 9.63-6.88 9.59-13z" transform="translate(-17.38 -56.52)" style="mix-blend-mode:soft-light" fill="url(#C_40_M_65_Y_90_K_35-3)" opacity=".42"/></g></g></g></svg>