<?xml version="1.0" standalone="no"?>
<!DOCTYPE svg PUBLIC "-//W3C//DTD SVG 20010904//EN"
 "http://www.w3.org/TR/2001/REC-SVG-20010904/DTD/svg10.dtd">
<svg version="1.0" xmlns="http://www.w3.org/2000/svg"
 width="512.000000pt" height="512.000000pt" viewBox="0 0 512.000000 512.000000"
 preserveAspectRatio="xMidYMid meet">
<metadata>
Created by potrace 1.11, written by Peter Selinger 2001-2013
</metadata>
<g transform="translate(0.000000,512.000000) scale(0.100000,-0.100000)"
fill="#000000" stroke="none">
<path d="M536 5110 c-41 -13 -94 -68 -106 -110 -6 -22 -10 -847 -10 -2310 0
-1939 2 -2285 15 -2343 58 -276 359 -423 610 -297 55 27 3480 2539 3587 2630
56 48 75 100 60 161 -17 68 -267 411 -450 619 -759 858 -1763 1413 -2887 1594
-270 44 -751 77 -819 56z m516 -165 c1373 -134 2610 -862 3406 -2002 51 -73
92 -135 92 -138 0 -4 -324 -248 -357 -268 -7 -4 -32 19 -64 60 -653 832 -1600
1443 -2619 1692 -249 60 -691 131 -823 131 -23 0 -59 3 -79 6 l-38 7 0 262 c0
144 3 265 8 269 9 11 286 -1 474 -19z m-139 -1030 c366 -40 713 -124 1041
-251 114 -45 390 -178 510 -246 469 -267 901 -656 1230 -1106 38 -51 67 -94
65 -96 -82 -64 -2748 -2018 -2779 -2035 -63 -36 -172 -36 -244 -1 -62 30 -113
80 -140 139 l-21 46 -3 1783 -2 1782 100 0 c56 0 165 -7 243 -15z"/>
<path d="M1164 3680 c-26 -10 -54 -48 -54 -72 0 -10 -6 -18 -13 -18 -7 0 -37
-12 -65 -26 -46 -23 -56 -25 -82 -14 -39 16 -64 6 -105 -44 -115 -141 -127
-369 -27 -526 99 -155 276 -238 451 -212 383 57 534 515 259 784 -71 70 -130
101 -231 122 -85 18 -102 19 -133 6z m173 -272 c63 -68 -1 -167 -87 -136 -35
12 -64 64 -53 95 13 38 46 63 83 63 25 0 43 -7 57 -22z m-211 -192 c21 -18 28
-32 28 -61 0 -74 -84 -110 -138 -60 -79 73 28 192 110 121z m253 -110 c62 -66
-7 -170 -90 -135 -35 14 -63 66 -52 96 22 64 99 85 142 39z"/>
<path d="M3003 2656 c-12 -9 -24 -29 -28 -45 -5 -22 -14 -31 -35 -36 -16 -4
-45 -17 -64 -30 -30 -20 -39 -22 -65 -12 -48 18 -77 -2 -113 -80 -99 -210 8
-458 225 -525 215 -65 427 55 483 274 31 120 -10 262 -102 355 -82 81 -248
136 -301 99z m51 -212 c21 -20 20 -43 -1 -66 -20 -22 -51 -23 -75 -1 -34 31
-12 83 37 83 13 0 31 -7 39 -16z m-62 -201 c26 -23 23 -59 -7 -79 -23 -15 -27
-15 -50 0 -25 16 -29 26 -25 56 2 18 28 40 49 40 8 0 23 -7 33 -17z m233 -3
c37 -41 -14 -107 -64 -81 -47 26 -30 101 24 101 12 0 30 -9 40 -20z"/>
<path d="M1789 2556 c-183 -39 -350 -203 -393 -386 -42 -176 2 -343 124 -473
102 -109 229 -167 368 -169 97 -1 147 10 229 47 77 36 98 61 89 107 -5 24 2
38 41 86 37 45 51 56 72 54 60 -5 92 60 99 203 4 89 1 109 -22 179 -47 138
-130 238 -253 304 -108 57 -233 74 -354 48z m246 -241 c52 -51 14 -139 -60
-139 -29 0 -43 7 -61 28 -49 56 -13 136 61 136 25 0 44 -8 60 -25z m-279 -269
c58 -49 20 -146 -57 -146 -43 0 -79 39 -79 85 0 74 80 110 136 61z m317 -88
c32 -17 46 -39 47 -74 0 -43 -42 -84 -85 -84 -39 0 -85 41 -85 76 0 70 64 114
123 82z"/>
<path d="M1075 1427 c-85 -28 -150 -78 -199 -151 -35 -53 -66 -140 -66 -186 0
-29 37 -70 62 -70 9 0 19 -12 23 -27 3 -16 15 -47 27 -71 17 -36 18 -48 9 -68
-17 -38 -3 -72 43 -102 101 -69 236 -85 346 -43 181 69 282 259 236 441 -31
120 -98 202 -206 254 -55 26 -78 31 -150 33 -49 2 -102 -3 -125 -10z m181
-192 c15 -23 15 -27 0 -50 -27 -40 -96 -25 -96 21 0 55 66 75 96 29z m-166
-176 c9 -16 8 -26 -5 -45 -31 -48 -105 -15 -91 41 12 48 72 51 96 4z m198 -41
c7 -7 12 -24 12 -38 0 -33 -17 -50 -50 -50 -14 0 -31 5 -38 12 -15 15 -15 61
0 76 15 15 61 15 76 0z"/>
</g>
</svg>
